<?xml version="1.0" encoding="utf-8"?>
<!-- Generator: Adobe Illustrator 19.0.0, SVG Export Plug-In . SVG Version: 6.00 Build 0)  -->
<svg version="1.1" id="katman_1" xmlns="http://www.w3.org/2000/svg" xmlns:xlink="http://www.w3.org/1999/xlink" x="0px" y="0px"
	 viewBox="0 0 42 42" style="enable-background:new 0 0 42 42;" xml:space="preserve">
<style type="text/css">
	.st0{fill:#609BCD;}
	.st1{fill:#FFFFFF;}
</style>
<circle id="XMLID_1_" class="st0" cx="21" cy="21" r="21"/>
<g id="XMLID_3_">
	<path id="XMLID_4_" class="st1" d="M11.5,33.4V8.6h8.2c3.1,0,5.5,0.6,7.2,1.7c1.7,1.1,2.6,2.9,2.6,5.1c0,1.2-0.3,2.2-0.8,3.2
		s-1.4,1.6-2.6,2.1c1.5,0.3,2.6,1,3.3,2c0.7,1,1.1,2.2,1.1,3.5c0,2.4-0.8,4.3-2.4,5.5c-1.6,1.2-4,1.9-7,1.9H11.5z M17.3,18.9h2.3
		c1.4,0,2.4-0.2,3.1-0.7s1-1.2,1-2.2c0-1.1-0.3-1.8-1-2.3c-0.7-0.5-1.7-0.7-3-0.7h-2.4V18.9z M17.3,22.8V29H21
		c1.2,0,2.2-0.2,2.8-0.7c0.6-0.5,0.9-1.2,0.9-2.2c0-1.1-0.3-1.9-0.8-2.4s-1.4-0.8-2.7-0.9H21H17.3z"/>
</g>
</svg>
